<svg xmlns="http://www.w3.org/2000/svg" viewBox="0 0 100 100"><rect width="100" height="100" rx="20" ry="20" opacity=".01" fill="#f00"/><path d="M50.001 1.489c-27.061 0-49.002 21.719-49.002 48.511 0 19.864 12.066 36.929 29.331 44.432-.138-3.388-.024-7.454.853-11.14.942-3.939 6.305-26.433 6.305-26.433s-1.566-3.098-1.566-7.676c0-7.188 4.209-12.558 9.451-12.558 4.457 0 6.61 3.314 6.61 7.283 0 4.435-2.858 11.071-4.327 17.215-1.228 5.146 2.606 9.343 7.734 9.343 9.285 0 15.537-11.805 15.537-25.791 0-10.633-7.233-18.59-20.39-18.59-14.864 0-24.124 10.974-24.124 23.232 0 4.226 1.258 7.207 3.23 9.515.906 1.06 1.032 1.488.704 2.704l-.999 3.894c-.326 1.229-1.332 1.668-2.453 1.214-6.845-2.767-10.034-10.189-10.034-18.534 0-13.781 11.739-30.304 35.022-30.304 18.708 0 31.021 13.403 31.021 27.79 0 19.029-10.687 33.247-26.44 33.247-5.289 0-10.266-2.831-11.971-6.047 0 0-2.845 11.177-3.448 13.335-1.039 3.74-3.072 7.478-4.932 10.392 4.407 1.287 9.062 1.988 13.887 1.988 27.059 0 49-21.719 49-48.511s-21.94-48.511-48.999-48.511z"/></svg>